<?xml version="1.0" encoding="UTF-8"?>
<svg id="Layer_1" xmlns="http://www.w3.org/2000/svg" width="256" height="100" version="1.1" viewBox="0 0 256 100">
  <!-- Generator: Adobe Illustrator 29.8.2, SVG Export Plug-In . SVG Version: 2.1.1 Build 3)  -->
  <g>
    <path d="M13.43,95.61l-10.32-26.52h6.43l7.11,19.89,7.03-19.89h6.47l-10.32,26.52h-6.39Z" fill="#eefcff"/>
    <path d="M34.59,96c-1.27,0-2.43-.21-3.47-.64-1.05-.42-1.87-1.06-2.46-1.91-.6-.85-.89-1.88-.89-3.1,0-1.3.3-2.33.91-3.1.61-.77,1.43-1.36,2.46-1.77,1.03-.41,2.18-.69,3.45-.85l5.99-.71c-.19-1.01-.64-1.73-1.37-2.18-.73-.45-1.59-.67-2.6-.67-.85,0-1.72.15-2.62.44-.9.29-1.96.78-3.18,1.47l-1.71-3.97c1.22-.82,2.49-1.44,3.83-1.85,1.34-.41,2.68-.62,4.03-.62,2.94,0,5.2.62,6.79,1.87,1.59,1.24,2.38,3.19,2.38,5.84v11.35h-5.2v-2.1c-.77.9-1.65,1.54-2.66,1.93-1.01.38-2.24.58-3.69.58ZM36.26,91.8c.95,0,1.75-.18,2.4-.54.65-.36,1.14-.81,1.47-1.37.33-.56.5-1.18.5-1.87v-.56l-4.21.52c-1.03.16-1.81.39-2.32.69-.52.3-.77.76-.77,1.37s.26,1.02.77,1.31c.52.29,1.24.44,2.16.44Z" fill="#eefcff"/>
    <path d="M56.97,96c-2.09,0-3.75-.6-4.96-1.81-1.22-1.2-1.83-3.06-1.83-5.58v-11.67h5.52v10.84c0,1.16.24,2.03.73,2.6.49.57,1.24.85,2.24.85,1.19,0,2.13-.39,2.82-1.17.69-.78,1.03-1.91,1.03-3.39v-9.73h5.52v18.66h-5.2v-2.26c-.58.79-1.35,1.44-2.3,1.93-.95.49-2.14.73-3.57.73Z" fill="#eefcff"/>
    <path d="M72.29,95.61v-26.52h5.52v26.52h-5.52Z" fill="#eefcff"/>
    <path d="M90.85,95.85c-2.33,0-4-.5-5.02-1.49-1.02-.99-1.53-2.55-1.53-4.66v-8.26h-3.81v-4.49h3.81v-5.32h5.48v5.32h4.57v4.49h-4.57v7.74c0,.74.2,1.29.6,1.65s.97.54,1.71.54c.32,0,.71-.01,1.17-.04.46-.03.83-.07,1.09-.12v4.25c-.45.13-.99.23-1.61.3-.62.07-1.25.1-1.89.1Z" fill="#eefcff"/>
    <path d="M107.32,96c-1.85,0-3.57-.26-5.14-.79-1.57-.53-3.14-1.4-4.7-2.62l2.06-4.45c1.46,1.01,2.84,1.77,4.15,2.3,1.31.53,2.52.79,3.63.79,1.56,0,2.77-.3,3.61-.89.85-.6,1.27-1.41,1.27-2.44,0-.74-.27-1.37-.81-1.89-.54-.52-1.33-.88-2.36-1.09l-3.61-.75c-2.51-.42-4.33-1.22-5.46-2.38-1.13-1.16-1.69-2.63-1.69-4.41,0-1.59.34-3.04,1.03-4.37.69-1.32,1.76-2.38,3.22-3.16,1.46-.78,3.34-1.17,5.64-1.17,1.51,0,3.02.2,4.53.6s3.03,1.15,4.57,2.26l-2.06,4.45c-1.27-.77-2.48-1.38-3.63-1.85s-2.24-.69-3.28-.69c-1.4,0-2.45.27-3.14.81-.69.54-1.03,1.28-1.03,2.2,0,.74.27,1.32.81,1.73.54.41,1.33.72,2.36.93l3.61.75c2.49.42,4.3,1.31,5.44,2.66,1.14,1.35,1.71,2.9,1.71,4.64,0,2.7-.91,4.84-2.74,6.43-1.83,1.59-4.49,2.38-7.98,2.38Z" fill="#eefcff"/>
    <path d="M127.97,96c-1.27,0-2.43-.21-3.47-.64-1.05-.42-1.87-1.06-2.46-1.91-.6-.85-.89-1.88-.89-3.1,0-1.3.3-2.33.91-3.1.61-.77,1.43-1.36,2.46-1.77,1.03-.41,2.18-.69,3.45-.85l5.99-.71c-.19-1.01-.64-1.73-1.37-2.18-.73-.45-1.6-.67-2.6-.67-.85,0-1.72.15-2.62.44-.9.29-1.96.78-3.18,1.47l-1.71-3.97c1.22-.82,2.49-1.44,3.83-1.85,1.34-.41,2.68-.62,4.03-.62,2.94,0,5.2.62,6.79,1.87,1.59,1.24,2.38,3.19,2.38,5.84v11.35h-5.2v-2.1c-.77.9-1.65,1.54-2.66,1.93-1.01.38-2.24.58-3.69.58ZM129.63,91.8c.95,0,1.75-.18,2.4-.54.65-.36,1.14-.81,1.47-1.37.33-.56.5-1.18.5-1.87v-.56l-4.21.52c-1.03.16-1.81.39-2.32.69s-.77.76-.77,1.37.26,1.02.77,1.31c.52.29,1.24.44,2.16.44Z" fill="#eefcff"/>
    <path d="M143.7,95.61v-18.66h5.2v2.26c.58-.79,1.35-1.44,2.3-1.93.95-.49,2.14-.73,3.57-.73,2.09,0,3.74.6,4.96,1.81,1.22,1.2,1.83,3.06,1.83,5.58v11.67h-5.52v-10.84c0-1.16-.24-2.03-.73-2.6-.49-.57-1.24-.85-2.24-.85-1.19,0-2.13.39-2.82,1.17-.69.78-1.03,1.91-1.03,3.39v9.73h-5.52Z" fill="#eefcff"/>
    <path d="M173.77,96c-1.67,0-3.18-.39-4.53-1.17s-2.42-1.9-3.22-3.35c-.79-1.46-1.19-3.19-1.19-5.2s.4-3.74,1.19-5.2c.79-1.46,1.87-2.57,3.22-3.35,1.35-.78,2.86-1.17,4.53-1.17,1.27,0,2.39.22,3.35.66.97.44,1.74,1.01,2.32,1.73v-9.85h5.48v26.52h-5.24v-2.38c-.58.85-1.38,1.52-2.38,2.02-1.01.5-2.18.75-3.53.75ZM175.04,91.24c.93,0,1.74-.2,2.44-.6.7-.4,1.24-.97,1.63-1.71.38-.74.58-1.63.58-2.66s-.19-1.92-.58-2.66c-.38-.74-.93-1.31-1.63-1.71-.7-.4-1.52-.6-2.44-.6s-1.73.2-2.42.6-1.23.96-1.63,1.69c-.4.73-.6,1.62-.6,2.68s.2,1.89.6,2.64.94,1.33,1.63,1.73,1.5.6,2.42.6Z" fill="#eefcff"/>
    <path d="M200.31,96c-1.38,0-2.57-.25-3.57-.75-1.01-.5-1.8-1.18-2.38-2.02v2.38h-5.2v-26.52h5.52v9.85c.58-.71,1.35-1.29,2.3-1.73.95-.44,2.06-.66,3.34-.66,1.69,0,3.21.39,4.55,1.17,1.34.78,2.4,1.9,3.2,3.35.79,1.46,1.19,3.19,1.19,5.2s-.4,3.75-1.19,5.2c-.79,1.46-1.86,2.57-3.2,3.35-1.34.78-2.85,1.17-4.55,1.17ZM199.04,91.24c.9,0,1.7-.2,2.4-.6.7-.4,1.25-.97,1.65-1.71.4-.74.6-1.63.6-2.66s-.19-1.92-.58-2.66c-.38-.74-.93-1.31-1.65-1.71s-1.51-.6-2.38-.6-1.71.2-2.42.6-1.27.96-1.67,1.69c-.4.73-.6,1.62-.6,2.68s.2,1.89.6,2.64.95,1.33,1.65,1.73c.7.4,1.5.6,2.4.6Z" fill="#eefcff"/>
    <path d="M222.62,96c-1.98,0-3.75-.4-5.3-1.21-1.55-.81-2.76-1.95-3.63-3.41-.87-1.47-1.31-3.17-1.31-5.1s.44-3.67,1.31-5.12c.87-1.46,2.08-2.59,3.61-3.39,1.53-.81,3.3-1.21,5.28-1.21s3.82.4,5.36,1.21c1.53.81,2.74,1.94,3.61,3.39.87,1.46,1.31,3.16,1.31,5.12s-.44,3.63-1.31,5.1c-.87,1.47-2.08,2.61-3.61,3.41-1.54.81-3.31,1.21-5.32,1.21ZM222.62,91.24c.93,0,1.74-.2,2.44-.6.7-.4,1.25-.97,1.65-1.73s.6-1.63.6-2.64-.2-1.92-.6-2.66c-.4-.74-.94-1.31-1.63-1.71-.69-.4-1.51-.6-2.46-.6s-1.74.2-2.44.6c-.7.4-1.25.97-1.65,1.71-.4.74-.6,1.63-.6,2.66s.2,1.89.6,2.64.94,1.33,1.63,1.73,1.51.6,2.46.6Z" fill="#eefcff"/>
    <path d="M232.6,95.61l6.71-9.65-6.31-9.01h6.11l3.61,5.76,3.65-5.76h6.11l-6.35,9.01,6.75,9.65h-6.11l-4.05-6.07-4.01,6.07h-6.11Z" fill="#eefcff"/>
  </g>
  <path d="M170.17,52.25c-.22-.95-.79-1.76-1.62-2.28l-15.31-9.59,15.09-8.3c1.17-.64,1.89-1.87,1.89-3.2s-.72-2.56-1.89-3.2l-38.58-21.24c-1.1-.61-2.42-.61-3.52,0l-38.58,21.24c-1.17.64-1.89,1.87-1.89,3.2s.72,2.56,1.89,3.2l15.1,8.31-15.3,9.59c-1.7,1.07-2.22,3.32-1.16,5.03,1.07,1.7,3.32,2.22,5.03,1.16l18.74-11.74,16.16,8.9c1.07.59,2.45.59,3.52,0l16.18-8.9,18.75,11.75c.59.37,1.25.56,1.93.56.27,0,.55-.03.82-.09.95-.22,1.76-.79,2.28-1.62.52-.83.68-1.8.46-2.75ZM159,28.89l-31.01,17.07-31.01-17.07,31.01-17.07,31.01,17.07Z" fill="#1cc2e3"/>
</svg>